<svg xmlns="http://www.w3.org/2000/svg" xmlns:xlink="http://www.w3.org/1999/xlink" width="500" zoomAndPan="magnify" viewBox="0 0 375 374.999991" height="500" preserveAspectRatio="xMidYMid meet" version="1.0"><defs><clipPath id="2d0f8574e6"><path d="M 10 18.65625 L 365 18.65625 L 365 330.65625 L 10 330.65625 Z M 10 18.65625 " clip-rule="nonzero"/></clipPath></defs><g clip-path="url(#2d0f8574e6)"><path fill="#e52d27" d="M 166.363281 32.472656 C 147.390625 65.640625 100.519531 148.636719 62.859375 215.328125 L 13.035156 303.488281 C 8.550781 311.378906 10.222656 317.621094 11.617188 320.636719 C 14.441406 326.746094 20.472656 329.792969 25.167969 330.617188 L 26.117188 330.777344 L 347.648438 330.785156 L 346.976562 330.761719 C 352.019531 331.070312 358.714844 329.253906 362.375 323.238281 C 364.714844 319.375 366.398438 312.804688 361.074219 303.464844 L 261.519531 129.523438 L 206.433594 33.3125 C 199.53125 21.246094 191.527344 18.710938 186.027344 18.710938 C 180.65625 18.710938 172.882812 21.09375 166.371094 32.472656 Z M 82.460938 226.753906 C 120.113281 160.085938 166.960938 77.121094 185.90625 44.003906 L 186.132812 43.644531 C 186.375 44.011719 186.609375 44.351562 186.882812 44.835938 L 241.988281 141.066406 C 241.988281 141.066406 329.902344 294.691406 337.425781 307.828125 L 36.640625 307.820312 L 82.457031 226.753906 " fill-opacity="1" fill-rule="evenodd"/></g><path fill="#e52d27" d="M 187.375 291.171875 C 197.117188 291.171875 205.007812 283 205.007812 272.921875 C 205.007812 262.851562 197.117188 254.679688 187.375 254.679688 C 177.621094 254.679688 169.726562 262.851562 169.726562 272.921875 C 169.726562 283 177.621094 291.171875 187.375 291.171875 " fill-opacity="1" fill-rule="evenodd"/><path fill="#e52d27" d="M 187.375 112.390625 C 201.449219 112.390625 214.378906 125.703125 212.855469 138.75 L 200.804688 230.539062 C 199.628906 238.558594 194.789062 244.425781 187.375 244.425781 C 179.960938 244.425781 175.105469 238.558594 173.945312 230.539062 L 161.886719 138.75 C 160.355469 125.703125 173.292969 112.390625 187.375 112.390625 " fill-opacity="1" fill-rule="evenodd"/></svg>