<svg xmlns="http://www.w3.org/2000/svg" xmlns:xlink="http://www.w3.org/1999/xlink" width="500" zoomAndPan="magnify" viewBox="0 0 375 374.999991" height="500" preserveAspectRatio="xMidYMid meet" version="1.0"><defs><clipPath id="8bd08368a4"><path d="M 24.558594 24.558594 L 350.808594 24.558594 L 350.808594 350.808594 L 24.558594 350.808594 Z M 24.558594 24.558594 " clip-rule="nonzero"/></clipPath></defs><g clip-path="url(#8bd08368a4)"><path fill="#ffffff" d="M 302.910156 24.558594 C 302.910156 24.558594 282.542969 51.714844 282.542969 72.082031 C 282.542969 83.324219 291.667969 92.449219 302.910156 92.449219 C 314.152344 92.449219 323.277344 83.324219 323.277344 72.082031 C 323.277344 51.714844 302.910156 24.558594 302.910156 24.558594 Z M 72.082031 38.136719 C 72.082031 38.136719 51.714844 65.292969 51.714844 85.660156 C 51.714844 96.902344 60.839844 106.027344 72.082031 106.027344 C 83.324219 106.027344 92.449219 96.902344 92.449219 85.660156 C 92.449219 65.292969 72.082031 38.136719 72.082031 38.136719 Z M 207.863281 38.136719 C 207.863281 38.136719 187.496094 65.292969 187.496094 85.660156 C 187.496094 96.902344 196.621094 106.027344 207.863281 106.027344 C 219.105469 106.027344 228.230469 96.902344 228.230469 85.660156 C 228.230469 65.292969 207.863281 38.136719 207.863281 38.136719 Z M 139.972656 65.292969 C 139.972656 65.292969 119.605469 92.449219 119.605469 112.816406 C 119.605469 124.058594 128.730469 133.183594 139.972656 133.183594 C 151.214844 133.183594 160.339844 124.058594 160.339844 112.816406 C 160.339844 92.449219 139.972656 65.292969 139.972656 65.292969 Z M 296.121094 133.183594 C 241.808594 133.183594 187.496094 160.339844 187.496094 228.230469 C 187.496094 243.777344 189.800781 255.867188 193.941406 265.359375 C 191.136719 271.820312 188.71875 278.191406 186.515625 284.480469 C 181.457031 273.757812 175.289062 263.707031 168.136719 254.378906 C 165.527344 250.976562 162.800781 247.652344 159.96875 244.40625 C 160.1875 242.746094 160.339844 241.085938 160.339844 239.527344 C 160.339844 182.960938 115.070312 160.339844 69.800781 160.339844 L 24.558594 160.339844 L 24.558594 194.285156 C 24.558594 262.175781 69.800781 296.121094 103.746094 296.121094 C 110.589844 296.121094 116.558594 294.953125 122.097656 293.308594 C 112.8125 279.707031 97.074219 259.542969 75.105469 241.730469 C 69.28125 237.003906 68.363281 228.460938 73.089844 222.636719 C 77.816406 216.808594 86.359375 215.882812 92.183594 220.621094 C 111.550781 236.320312 131.132812 255.007812 141.191406 264.722656 C 142.945312 266.792969 144.953125 268.785156 146.578125 270.902344 C 163.851562 293.433594 173.96875 318.246094 173.917969 350.40625 C 173.917969 350.46875 173.917969 350.535156 173.917969 350.59375 L 187.496094 350.433594 L 201.074219 350.460938 C 201.074219 350.398438 201.074219 350.339844 201.074219 350.273438 C 200.839844 330.078125 208.289062 296.355469 225.101562 262.707031 C 229.222656 254.460938 233.90625 246.210938 239.128906 238.097656 C 248.703125 224.441406 258.832031 210.691406 268.222656 201.261719 C 273.519531 195.953125 282.113281 195.910156 287.421875 201.207031 C 292.746094 206.503906 292.773438 215.097656 287.476562 220.40625 C 265.019531 242.960938 249.273438 267.832031 239.632812 295.273438 C 244.617188 295.84375 249.859375 296.121094 255.386719 296.121094 C 296.121094 296.121094 350.433594 255.386719 350.433594 173.917969 L 350.433594 133.183594 Z M 296.121094 133.183594 " fill-opacity="1" fill-rule="nonzero"/></g></svg>