<svg xmlns="http://www.w3.org/2000/svg" xmlns:xlink="http://www.w3.org/1999/xlink" width="500" zoomAndPan="magnify" viewBox="0 0 375 374.999991" height="500" preserveAspectRatio="xMidYMid meet" version="1.0"><defs><clipPath id="30493ebc97"><path d="M 25 25.375 L 350 25.375 L 350 350 L 25 350 Z M 25 25.375 " clip-rule="nonzero"/></clipPath></defs><path fill="#ffffff" d="M 94.640625 93.164062 L 79.433594 77.957031 C 77.527344 76.050781 74.445312 76.050781 72.542969 77.957031 L 57.335938 93.164062 C 55.425781 95.066406 55.425781 98.15625 57.335938 100.054688 C 59.242188 101.964844 62.324219 101.964844 64.226562 100.054688 L 71.113281 93.175781 L 71.113281 121.953125 C 71.113281 124.648438 73.292969 126.832031 75.988281 126.832031 C 78.679688 126.832031 80.863281 124.648438 80.863281 121.953125 L 80.863281 93.175781 C 87.054688 98.84375 87.875 101.488281 91.195312 101.488281 C 95.492188 101.488281 97.722656 96.242188 94.640625 93.164062 Z M 94.640625 93.164062 " fill-opacity="1" fill-rule="nonzero"/><g clip-path="url(#30493ebc97)"><path fill="#ffffff" d="M 313.625 233.042969 C 313.878906 229.933594 314.035156 226.753906 314.035156 223.332031 C 314.035156 154.960938 196 32.511719 190.976562 27.339844 C 189.148438 25.449219 185.816406 25.445312 183.980469 27.339844 C 183.664062 27.664062 154.355469 58.019531 124.742188 96.339844 C 116.804688 69.503906 83.828125 32.171875 79.613281 27.476562 C 77.757812 25.410156 74.203125 25.410156 72.351562 27.476562 C 67.558594 32.816406 25.488281 80.4375 25.488281 106.742188 C 25.488281 137.113281 52.546875 161.515625 83.914062 156.550781 C 68.707031 183.386719 60.976562 205.824219 60.976562 223.332031 C 60.976562 324.683594 174.558594 384.328125 257.773438 328.402344 C 266.921875 341.351562 281.980469 349.84375 299.007812 349.84375 C 326.847656 349.84375 349.5 327.195312 349.5 299.351562 C 349.5 280.367188 327.617188 250.332031 313.625 233.042969 Z M 35.242188 106.742188 C 35.242188 89.285156 61.945312 54.515625 75.980469 38.132812 C 88.070312 52.234375 116.625 88.355469 116.722656 106.921875 C 107.050781 119.9375 98.421875 132.578125 91.039062 144.546875 C 64.351562 155.285156 35.242188 135.445312 35.242188 106.742188 Z M 252.933594 319.914062 C 176.410156 372.023438 70.730469 317.394531 70.730469 223.332031 C 70.730469 205.394531 80.0625 181.078125 98.460938 151.058594 C 121.789062 112.921875 157.035156 70.230469 187.484375 37.8125 C 207.132812 58.734375 302.632812 163.394531 304.214844 221.847656 C 303.535156 221.078125 302.980469 220.441406 302.636719 220.070312 C 300.785156 218.003906 297.230469 218.003906 295.378906 220.070312 C 290.582031 225.417969 248.515625 273.054688 248.515625 299.359375 C 248.515625 306.675781 250.117188 313.621094 252.933594 319.914062 Z M 299.007812 340.097656 C 276.546875 340.097656 258.265625 321.820312 258.265625 299.359375 C 258.265625 281.894531 284.96875 247.121094 299.007812 230.730469 C 313.042969 247.121094 339.75 281.894531 339.75 299.359375 C 339.75 321.820312 321.46875 340.097656 299.007812 340.097656 Z M 299.007812 340.097656 " fill-opacity="1" fill-rule="nonzero"/></g><path fill="#ffffff" d="M 302.453125 270.566406 C 300.546875 268.660156 297.464844 268.660156 295.5625 270.566406 L 280.355469 285.773438 C 278.449219 287.675781 278.449219 290.765625 280.355469 292.667969 C 282.261719 294.574219 285.34375 294.574219 287.246094 292.667969 L 294.132812 285.785156 L 294.132812 314.566406 C 294.132812 317.257812 296.316406 319.441406 299.007812 319.441406 C 301.699219 319.441406 303.882812 317.257812 303.882812 314.566406 L 303.882812 285.785156 C 310.074219 291.453125 310.894531 294.097656 314.214844 294.097656 C 318.515625 294.097656 320.75 288.851562 317.660156 285.773438 Z M 302.453125 270.566406 " fill-opacity="1" fill-rule="nonzero"/><path fill="#ffffff" d="M 141.6875 197.164062 L 141.6875 192.914062 C 141.6875 190.222656 139.503906 188.039062 136.8125 188.039062 C 134.121094 188.039062 131.9375 190.222656 131.9375 192.914062 C 131.9375 194.464844 131.9375 264.585938 131.9375 263.875 C 131.9375 266.570312 134.121094 268.753906 136.8125 268.753906 C 139.503906 268.753906 141.6875 266.570312 141.6875 263.875 L 141.6875 239.351562 C 156.652344 249.753906 177.167969 238.984375 177.167969 220.789062 L 177.167969 215.71875 C 177.167969 197.503906 156.621094 186.777344 141.6875 197.164062 Z M 167.417969 220.789062 C 167.417969 227.882812 161.648438 233.65625 154.550781 233.65625 C 147.453125 233.65625 141.683594 227.886719 141.683594 220.789062 L 141.683594 215.71875 C 141.683594 208.628906 147.453125 202.851562 154.550781 202.851562 C 161.648438 202.851562 167.417969 208.621094 167.417969 215.71875 Z M 167.417969 220.789062 " fill-opacity="1" fill-rule="nonzero"/><path fill="#ffffff" d="M 238.183594 152.558594 C 235.492188 152.558594 233.308594 154.742188 233.308594 157.433594 L 233.308594 193.105469 L 202.507812 193.105469 L 202.507812 157.433594 C 202.507812 154.742188 200.324219 152.558594 197.632812 152.558594 C 194.9375 152.558594 192.753906 154.742188 192.753906 157.433594 L 192.753906 238.53125 C 192.753906 241.226562 194.9375 243.410156 197.632812 243.410156 C 200.324219 243.410156 202.507812 241.226562 202.507812 238.53125 L 202.507812 202.855469 L 233.308594 202.855469 L 233.308594 238.527344 C 233.308594 241.21875 235.492188 243.402344 238.183594 243.402344 C 240.875 243.402344 243.058594 241.21875 243.058594 238.527344 L 243.058594 157.433594 C 243.058594 154.742188 240.875 152.558594 238.183594 152.558594 Z M 238.183594 152.558594 " fill-opacity="1" fill-rule="nonzero"/></svg>