<svg xmlns="http://www.w3.org/2000/svg" xmlns:xlink="http://www.w3.org/1999/xlink" width="500" zoomAndPan="magnify" viewBox="0 0 375 374.999991" height="500" preserveAspectRatio="xMidYMid meet" version="1.0"><defs><clipPath id="41f61f4d57"><path d="M 63.09375 22 L 312 22 L 312 354 L 63.09375 354 Z M 63.09375 22 " clip-rule="nonzero"/></clipPath></defs><g clip-path="url(#41f61f4d57)"><path fill="#ffffff" d="M 198.097656 27.339844 C 192.851562 21.050781 182.140625 21.050781 176.894531 27.339844 C 165.253906 41.277344 63.183594 165.382812 63.183594 229.570312 C 63.183594 298.113281 118.953125 353.882812 187.496094 353.882812 C 256.039062 353.882812 311.808594 298.113281 311.808594 229.570312 C 311.808594 165.382812 209.738281 41.277344 198.097656 27.335938 Z M 187.496094 326.257812 C 152.476562 326.257812 121.839844 307.480469 104.871094 279.527344 C 110.917969 282.597656 118.285156 284.820312 127.746094 284.820312 C 148.109375 284.820312 159.054688 274.722656 167.046875 267.34375 C 180.851562 254.613281 194.300781 254.542969 208.148438 267.339844 C 216.132812 274.71875 227.074219 284.820312 247.429688 284.820312 C 256.769531 284.820312 264.058594 282.648438 270.058594 279.632812 C 253.078125 307.527344 222.472656 326.257812 187.496094 326.257812 Z M 267.957031 247.050781 C 254.171875 259.789062 240.730469 259.832031 226.898438 247.050781 C 218.914062 239.671875 207.972656 229.570312 187.617188 229.570312 C 167.261719 229.570312 156.304688 239.671875 148.3125 247.042969 C 134.5 259.796875 121.027344 259.832031 107.164062 247.042969 C 102.953125 243.160156 97.875 238.558594 91.085938 235.035156 C 90.980469 233.214844 90.808594 231.414062 90.808594 229.570312 C 90.808594 219.761719 94.742188 206.535156 101.378906 191.304688 C 107.851562 196.988281 115.113281 201.945312 127.75 201.945312 C 157.683594 201.945312 157.683594 174.320312 187.617188 174.320312 C 217.550781 174.320312 217.523438 201.945312 247.429688 201.945312 C 259.976562 201.945312 267.214844 197.039062 273.652344 191.394531 C 280.265625 206.585938 284.183594 219.78125 284.183594 229.570312 C 284.183594 231.433594 284.007812 233.253906 283.90625 235.09375 C 277.175781 238.609375 272.140625 243.1875 267.957031 247.050781 Z M 267.957031 247.050781 " fill-opacity="1" fill-rule="nonzero"/></g></svg>