<svg xmlns="http://www.w3.org/2000/svg" xmlns:xlink="http://www.w3.org/1999/xlink" width="500" zoomAndPan="magnify" viewBox="0 0 375 374.999991" height="500" preserveAspectRatio="xMidYMid meet" version="1.0"><path fill="#ffffff" d="M 459.753906 207.851562 C 462.597656 191.59375 487.546875 176.902344 487.546875 159.832031 C 487.546875 142.757812 462.597656 128.074219 459.753906 111.808594 C 456.828125 95.089844 475.199219 72.785156 469.523438 57.191406 C 463.742188 41.316406 435.28125 36.054688 426.933594 21.628906 C 418.5 7.0625 428.113281 -20.214844 417.355469 -33.019531 C 406.5625 -45.871094 378.023438 -41.113281 365.175781 -51.90625 C 352.371094 -62.667969 352.125 -91.601562 337.5625 -100.035156 C 323.132812 -108.375 297.953125 -94.183594 282.078125 -99.964844 C 266.476562 -105.640625 256.339844 -132.753906 239.621094 -135.683594 C 223.363281 -138.527344 204.59375 -116.554688 187.523438 -116.554688 C 170.445312 -116.554688 151.683594 -138.527344 135.425781 -135.683594 C 118.707031 -132.753906 108.5625 -105.640625 92.960938 -99.964844 C 77.09375 -94.183594 51.914062 -108.382812 37.484375 -100.035156 C 22.917969 -91.601562 22.675781 -62.667969 9.863281 -51.90625 C -2.980469 -41.113281 -31.519531 -45.871094 -42.308594 -33.019531 C -53.070312 -20.214844 -43.460938 7.0625 -51.886719 21.628906 C -60.234375 36.054688 -88.703125 41.316406 -94.476562 57.191406 C -100.152344 72.785156 -81.78125 95.089844 -84.714844 111.808594 C -87.558594 128.074219 -112.5 142.757812 -112.5 159.832031 C -112.5 176.902344 -87.558594 191.59375 -84.714844 207.851562 C -81.78125 224.570312 -100.152344 246.875 -94.476562 262.476562 C -88.703125 278.34375 -60.234375 283.605469 -51.886719 298.035156 C -43.460938 312.601562 -53.070312 339.875 -42.308594 352.6875 C -31.523438 365.53125 -2.984375 360.773438 9.863281 371.566406 C 22.675781 382.328125 22.914062 411.269531 37.484375 419.695312 C 51.914062 428.042969 77.09375 413.84375 92.960938 419.625 C 108.5625 425.300781 118.703125 452.414062 135.425781 455.34375 C 151.683594 458.195312 170.445312 436.21875 187.523438 436.21875 C 204.59375 436.21875 223.363281 458.195312 239.621094 455.34375 C 256.339844 452.414062 266.476562 425.300781 282.078125 419.625 C 297.953125 413.84375 323.128906 428.042969 337.554688 419.695312 C 352.125 411.269531 352.371094 382.328125 365.175781 371.566406 C 378.023438 360.773438 406.5625 365.53125 417.355469 352.6875 C 428.113281 339.882812 418.5 312.601562 426.933594 298.035156 C 435.273438 283.605469 463.742188 278.34375 469.523438 262.476562 C 475.199219 246.875 456.828125 224.570312 459.753906 207.851562 " fill-opacity="1" fill-rule="nonzero"/><path fill="#84c61c" d="M 119.75 278.777344 L 37.417969 190.527344 C 31.800781 184.832031 29.875 170.28125 37.757812 159.75 C 44.144531 151.226562 64.195312 146.332031 74.871094 154.457031 C 75.195312 154.707031 143.15625 207.378906 143.15625 207.378906 C 143.210938 207.4375 143.308594 207.4375 143.367188 207.378906 L 295.734375 64.882812 C 306.3125 54.300781 323.414062 54.160156 334.175781 64.5625 C 345.15625 75.183594 345.335938 92.738281 334.570312 103.585938 L 166.839844 278.847656 C 153.855469 291.921875 132.695312 291.890625 119.75 278.777344 " fill-opacity="1" fill-rule="nonzero"/></svg>