<svg xmlns="http://www.w3.org/2000/svg" xmlns:xlink="http://www.w3.org/1999/xlink" width="500" zoomAndPan="magnify" viewBox="0 0 375 374.999991" height="500" preserveAspectRatio="xMidYMid meet" version="1.0"><defs><clipPath id="be1102f85f"><path d="M 40 12 L 346 12 L 346 363.707031 L 40 363.707031 Z M 40 12 " clip-rule="nonzero"/></clipPath></defs><g clip-path="url(#be1102f85f)"><path fill="#333333" d="M 228.613281 61.960938 C 226.722656 63.851562 225.011719 65.925781 223.425781 68.121094 C 208.910156 88.921875 192.378906 108.625 174.445312 126.558594 C 156.328125 144.617188 136.5625 161.207031 115.519531 175.847656 C 113.320312 177.375 111.308594 179.082031 109.480469 180.910156 C 92.214844 198.175781 92.335938 226.417969 109.722656 243.804688 C 118.324219 252.402344 129.730469 256.917969 141.261719 256.917969 C 149.25 256.917969 157.363281 254.785156 164.625 250.332031 C 190.363281 234.59375 214.339844 215.988281 235.808594 195.003906 C 237.03125 193.84375 238.191406 192.683594 239.347656 191.527344 C 261.980469 168.894531 281.867188 143.519531 298.578125 116.128906 C 309.132812 98.746094 306.328125 76.417969 291.746094 61.839844 C 274.363281 44.453125 246.058594 44.515625 228.613281 61.960938 Z M 288.148438 109.785156 C 271.984375 136.382812 252.648438 160.964844 230.746094 182.863281 C 229.648438 183.960938 228.492188 185.121094 227.332031 186.21875 C 206.46875 206.59375 183.226562 224.648438 158.277344 239.898438 C 145.40625 247.769531 129 245.816406 118.382812 235.203125 C 105.757812 222.515625 105.636719 202.078125 118.140625 189.574219 C 119.484375 188.230469 120.945312 187.011719 122.53125 185.851562 C 144.125 170.847656 164.5 153.765625 183.105469 135.160156 C 201.527344 116.679688 218.484375 96.488281 233.429688 75.078125 C 234.589844 73.429688 235.871094 71.902344 237.214844 70.5 C 243.558594 64.15625 251.914062 60.984375 260.210938 60.984375 C 268.507812 60.984375 276.742188 64.15625 283.085938 70.441406 C 293.699219 81.054688 295.773438 97.21875 288.148438 109.785156 Z M 345.429688 77.515625 C 344.328125 74.34375 340.914062 72.574219 337.679688 73.671875 L 325.296875 77.882812 C 323.164062 69.160156 319.320312 60.863281 313.707031 53.421875 L 324.078125 43.050781 C 326.457031 40.671875 326.457031 36.828125 324.078125 34.449219 C 321.699219 32.070312 317.855469 32.070312 315.476562 34.449219 L 305.535156 44.394531 C 298.519531 37.925781 290.40625 33.109375 281.5625 30.117188 L 284.734375 20.785156 C 285.832031 17.613281 284.121094 14.136719 280.890625 13.039062 C 277.71875 11.941406 274.242188 13.648438 273.144531 16.882812 L 269.605469 27.253906 C 264.601562 26.519531 259.539062 26.398438 254.414062 26.824219 C 251 27.128906 247.644531 27.738281 244.410156 28.59375 L 236.847656 15.234375 C 235.199219 12.308594 231.480469 11.269531 228.550781 12.917969 C 225.625 14.5625 224.585938 18.285156 226.234375 21.214844 L 232.636719 32.496094 C 224.832031 36.035156 217.816406 41.039062 211.835938 47.320312 L 209.273438 42.808594 C 207.628906 39.878906 203.90625 38.84375 200.980469 40.488281 C 198.050781 42.136719 197.015625 45.855469 198.660156 48.785156 L 203.601562 57.507812 C 198.296875 65.011719 192.683594 72.332031 186.886719 79.46875 L 181.765625 70.378906 C 180.117188 67.453125 176.394531 66.414062 173.46875 68.0625 C 170.539062 69.707031 169.503906 73.429688 171.148438 76.355469 L 178.53125 89.410156 C 173.46875 95.207031 168.28125 100.878906 162.976562 106.371094 L 153.214844 96.609375 C 150.835938 94.230469 146.992188 94.230469 144.613281 96.609375 C 142.234375 98.988281 142.234375 102.832031 144.613281 105.210938 L 154.375 114.96875 C 148.886719 120.339844 143.210938 125.523438 137.417969 130.527344 L 124.363281 123.144531 C 121.433594 121.496094 117.714844 122.535156 116.066406 125.460938 C 114.417969 128.390625 115.457031 132.113281 118.382812 133.757812 L 127.472656 138.882812 C 120.335938 144.675781 113.015625 150.289062 105.511719 155.597656 L 96.789062 150.714844 C 93.863281 149.070312 90.140625 150.105469 88.496094 153.035156 C 86.847656 155.960938 87.882812 159.683594 90.8125 161.332031 L 95.265625 163.832031 C 88.984375 169.75 83.917969 176.824219 80.382812 184.632812 L 69.21875 178.289062 C 66.289062 176.640625 62.570312 177.679688 60.921875 180.605469 C 59.273438 183.535156 60.3125 187.257812 63.242188 188.902344 L 76.476562 196.40625 C 75.683594 199.640625 75.074219 202.871094 74.769531 206.226562 C 74.28125 211.472656 74.527344 216.65625 75.257812 221.722656 L 64.949219 225.199219 C 61.777344 226.296875 60.066406 229.773438 61.105469 232.945312 C 61.960938 235.507812 64.339844 237.09375 66.898438 237.09375 C 67.570312 237.09375 68.179688 236.972656 68.851562 236.789062 L 78.125 233.617188 C 80.929688 241.851562 85.382812 249.539062 91.238281 256.246094 C 74.28125 265.457031 29.203125 294.371094 43.414062 335.792969 C 47.992188 349.027344 57.996094 358.421875 71.597656 362.203125 C 75.988281 363.425781 80.625 364.035156 85.324219 364.035156 C 99.167969 364.035156 113.566406 358.910156 124.667969 349.578125 C 146.933594 330.789062 173.101562 341.464844 174.199219 341.953125 C 177.25 343.292969 180.910156 341.832031 182.191406 338.71875 C 183.53125 335.609375 182.070312 332.007812 178.957031 330.730469 C 177.554688 330.117188 144.859375 316.515625 116.738281 340.246094 C 105.085938 350.066406 88.191406 354.152344 74.832031 350.492188 C 68 348.601562 59.03125 343.84375 54.945312 331.886719 C 42.804688 296.570312 90.628906 270.277344 100.574219 265.214844 C 108.199219 271.132812 116.859375 275.15625 125.949219 277.351562 L 121.738281 289.859375 C 120.640625 293.03125 122.351562 296.507812 125.582031 297.605469 C 126.253906 297.847656 126.863281 297.910156 127.535156 297.910156 C 130.097656 297.910156 132.476562 296.324219 133.328125 293.761719 L 138.269531 279.121094 C 139.308594 279.121094 140.34375 279.304688 141.441406 279.304688 C 147.664062 279.304688 153.949219 278.390625 160.046875 276.621094 L 166.878906 288.699219 C 167.976562 290.710938 170.050781 291.808594 172.1875 291.808594 C 173.222656 291.808594 174.199219 291.566406 175.175781 291.015625 C 178.105469 289.371094 179.140625 285.648438 177.492188 282.722656 L 171.453125 272.046875 C 173.101562 271.191406 174.808594 270.460938 176.457031 269.484375 C 181.824219 266.191406 187.070312 262.714844 192.316406 259.175781 L 197.195312 267.835938 C 198.296875 269.851562 200.367188 270.949219 202.503906 270.949219 C 203.542969 270.949219 204.515625 270.703125 205.492188 270.15625 C 208.421875 268.507812 209.457031 264.789062 207.8125 261.859375 L 202.320312 252.160156 C 209.273438 247.15625 216.046875 241.972656 222.695312 236.605469 L 224.769531 240.265625 C 225.867188 242.277344 227.941406 243.375 230.078125 243.375 C 231.113281 243.375 232.089844 243.132812 233.066406 242.582031 C 235.992188 240.9375 237.03125 237.214844 235.382812 234.285156 L 232.273438 228.734375 C 238.675781 223.246094 244.960938 217.574219 251 211.65625 L 253.378906 214.035156 C 254.597656 215.253906 256.125 215.804688 257.710938 215.804688 C 259.296875 215.804688 260.820312 215.195312 262.039062 214.035156 C 264.417969 211.65625 264.417969 207.8125 262.039062 205.433594 L 259.660156 203.054688 C 265.515625 197.015625 271.25 190.734375 276.742188 184.328125 L 282.292969 187.4375 C 283.269531 187.988281 284.246094 188.230469 285.28125 188.230469 C 287.417969 188.230469 289.492188 187.132812 290.589844 185.121094 C 292.234375 182.191406 291.199219 178.472656 288.269531 176.824219 L 284.671875 174.8125 C 290.039062 168.164062 295.226562 161.390625 300.226562 154.4375 L 309.863281 159.867188 C 310.839844 160.414062 311.816406 160.660156 312.855469 160.660156 C 314.988281 160.660156 317.0625 159.5625 318.160156 157.546875 C 319.808594 154.621094 318.769531 150.898438 315.84375 149.253906 L 307.179688 144.371094 C 310.839844 138.945312 314.441406 133.453125 317.792969 127.839844 C 318.648438 126.4375 319.378906 125.035156 320.113281 123.570312 L 330.664062 129.488281 C 331.640625 130.039062 332.617188 130.28125 333.65625 130.28125 C 335.789062 130.28125 337.863281 129.183594 338.960938 127.171875 C 340.609375 124.242188 339.570312 120.519531 336.644531 118.875 L 324.6875 112.164062 C 326.824219 105.027344 327.617188 97.585938 327.25 90.265625 L 341.707031 85.386719 C 344.878906 84.289062 346.585938 80.871094 345.550781 77.636719 Z M 242.886719 202.199219 C 220.804688 223.734375 196.28125 242.828125 169.867188 258.929688 C 148.214844 272.167969 120.519531 268.875 102.585938 250.941406 C 91.054688 239.410156 85.324219 223.550781 86.726562 207.324219 C 88.128906 191.222656 96.546875 176.765625 109.722656 167.550781 C 130.21875 153.277344 149.554688 137.050781 167.246094 119.421875 C 184.753906 101.917969 200.855469 82.703125 215.070312 62.328125 C 224.464844 48.90625 239.164062 40.367188 255.453125 38.902344 C 257.039062 38.78125 258.6875 38.71875 260.273438 38.71875 C 274.667969 38.71875 288.515625 44.394531 298.761719 54.703125 C 316.636719 72.574219 320.113281 100.023438 307.121094 121.375 C 289.125 150.898438 267.53125 178.105469 242.824219 202.199219 Z M 178.042969 202.933594 C 178.042969 206.289062 175.296875 209.03125 171.941406 209.03125 C 168.589844 209.03125 165.84375 206.289062 165.84375 202.933594 C 165.84375 199.578125 168.589844 196.832031 171.941406 196.832031 C 175.296875 196.832031 178.042969 199.578125 178.042969 202.933594 Z M 182.496094 165.601562 C 182.496094 168.957031 179.75 171.699219 176.394531 171.699219 C 173.042969 171.699219 170.296875 168.957031 170.296875 165.601562 C 170.296875 162.246094 173.042969 159.5 176.394531 159.5 C 179.75 159.5 182.496094 162.246094 182.496094 165.601562 Z M 242.582031 146.261719 C 242.582031 149.617188 239.835938 152.363281 236.480469 152.363281 C 233.125 152.363281 230.382812 149.617188 230.382812 146.261719 C 230.382812 142.910156 233.125 140.164062 236.480469 140.164062 C 239.835938 140.164062 242.582031 142.910156 242.582031 146.261719 Z M 220.621094 128.511719 C 220.621094 131.867188 217.875 134.613281 214.519531 134.613281 C 211.167969 134.613281 208.421875 131.867188 208.421875 128.511719 C 208.421875 125.15625 211.167969 122.414062 214.519531 122.414062 C 217.875 122.414062 220.621094 125.15625 220.621094 128.511719 Z M 248.679688 92.828125 C 248.679688 96.183594 245.9375 98.925781 242.582031 98.925781 C 239.226562 98.925781 236.480469 96.183594 236.480469 92.828125 C 236.480469 89.472656 239.226562 86.726562 242.582031 86.726562 C 245.9375 86.726562 248.679688 89.472656 248.679688 92.828125 Z M 149.191406 206.957031 C 149.007812 210.191406 146.324219 212.691406 143.089844 212.691406 C 142.96875 212.691406 142.847656 212.691406 142.722656 212.691406 L 132.597656 212.082031 C 129.242188 211.898438 126.679688 208.972656 126.863281 205.617188 C 127.046875 202.261719 129.976562 199.761719 133.328125 199.882812 L 143.457031 200.492188 C 146.8125 200.675781 149.371094 203.605469 149.191406 206.957031 Z M 214.398438 169.199219 L 212.386719 179.082031 C 211.777344 181.949219 209.273438 183.960938 206.410156 183.960938 C 205.980469 183.960938 205.617188 183.960938 205.1875 183.839844 C 201.894531 183.167969 199.757812 179.9375 200.429688 176.640625 L 202.441406 166.757812 C 203.113281 163.464844 206.347656 161.390625 209.640625 162 C 212.933594 162.671875 215.070312 165.90625 214.398438 169.199219 Z M 263.445312 115.640625 L 261.429688 125.523438 C 260.820312 128.390625 258.320312 130.402344 255.453125 130.402344 C 255.027344 130.402344 254.660156 130.402344 254.234375 130.28125 C 250.9375 129.609375 248.804688 126.378906 249.472656 123.082031 L 251.488281 113.203125 C 252.160156 109.90625 255.390625 107.832031 258.6875 108.445312 C 261.980469 109.113281 264.113281 112.347656 263.445312 115.640625 Z M 263.445312 115.640625 " fill-opacity="1" fill-rule="nonzero"/></g></svg>