<svg xmlns="http://www.w3.org/2000/svg" xmlns:xlink="http://www.w3.org/1999/xlink" width="500" zoomAndPan="magnify" viewBox="0 0 375 374.999991" height="500" preserveAspectRatio="xMidYMid meet" version="1.0"><defs><clipPath id="1118f0a519"><path d="M 166 176 L 337 176 L 337 346.976562 L 166 346.976562 Z M 166 176 " clip-rule="nonzero"/></clipPath><clipPath id="c97a811c8c"><path d="M 38 176 L 179 176 L 179 346.976562 L 38 346.976562 Z M 38 176 " clip-rule="nonzero"/></clipPath><clipPath id="ba5d3d1a74"><path d="M 60 28.226562 L 315 28.226562 L 315 168 L 60 168 Z M 60 28.226562 " clip-rule="nonzero"/></clipPath></defs><g clip-path="url(#1118f0a519)"><path fill="#ffffff" d="M 332.675781 184.472656 C 332.253906 182.347656 330.605469 180.703125 328.484375 180.277344 C 324.925781 179.589844 240.15625 163.503906 196.519531 207.136719 C 152.886719 250.769531 168.972656 335.542969 169.660156 339.152344 C 170.085938 341.277344 171.730469 342.921875 173.855469 343.347656 C 175.023438 343.558594 191.636719 346.742188 213.71875 346.742188 C 228.796875 346.742188 246.367188 345.257812 263.296875 340.375 C 266.113281 339.578125 267.757812 336.605469 266.910156 333.792969 C 266.113281 330.976562 263.140625 329.386719 260.324219 330.183594 C 232.296875 338.304688 201.5625 336.285156 186.0625 334.429688 L 310.59375 209.84375 C 312.664062 207.773438 312.664062 204.429688 310.59375 202.359375 C 308.523438 200.289062 305.179688 200.289062 303.109375 202.359375 L 178.578125 326.945312 C 175.820312 303.695312 172.742188 245.992188 204.007812 214.730469 C 238.882812 179.855469 306.507812 187.65625 322.804688 190.152344 C 325.296875 206.449219 333.101562 274.128906 298.226562 309.003906 C 293.238281 313.992188 287.34375 318.34375 280.601562 322.007812 C 278.003906 323.386719 277.046875 326.625 278.480469 329.226562 C 279.859375 331.828125 283.097656 332.730469 285.644531 331.351562 C 293.289062 327.210938 300.03125 322.21875 305.710938 316.539062 C 349.34375 272.90625 333.261719 188.132812 332.570312 184.523438 Z M 332.675781 184.472656 " fill-opacity="1" fill-rule="nonzero"/></g><g clip-path="url(#c97a811c8c)"><path fill="#ffffff" d="M 154.003906 335.96875 C 130.273438 335.171875 97.578125 329.8125 76.714844 308.949219 C 41.839844 274.074219 49.644531 206.394531 52.136719 190.097656 C 68.328125 187.65625 134.945312 179.960938 170.035156 213.773438 C 172.15625 215.789062 175.5 215.738281 177.519531 213.613281 C 179.535156 211.492188 179.480469 208.144531 177.359375 206.128906 C 133.40625 163.769531 50.015625 179.589844 46.457031 180.277344 C 44.335938 180.703125 42.691406 182.347656 42.265625 184.472656 C 41.574219 188.082031 25.492188 272.851562 69.125 316.488281 C 87.597656 334.960938 116.792969 345.363281 153.578125 346.585938 C 153.632812 346.585938 153.683594 346.585938 153.738281 346.585938 C 156.605469 346.585938 158.9375 344.300781 159.046875 341.4375 C 159.152344 338.515625 156.867188 336.074219 153.894531 335.96875 Z M 154.003906 335.96875 " fill-opacity="1" fill-rule="nonzero"/></g><path fill="#ffffff" d="M 187.496094 91.949219 C 176.402344 91.949219 167.328125 100.550781 166.425781 111.429688 C 143.492188 119.5 126.71875 140.464844 124.222656 164.726562 C 123.90625 167.644531 126.027344 170.246094 128.949219 170.5625 C 129.160156 170.5625 129.320312 170.5625 129.480469 170.5625 C 132.1875 170.5625 134.46875 168.546875 134.734375 165.785156 C 136.75 146.148438 150.023438 129.160156 168.230469 121.996094 C 171.625 129.265625 178.898438 134.308594 187.445312 134.308594 C 195.992188 134.308594 203.261719 129.214844 206.660156 121.996094 C 224.921875 129.160156 238.136719 146.148438 240.15625 165.785156 C 240.421875 168.492188 242.757812 170.5625 245.410156 170.5625 C 245.570312 170.5625 245.78125 170.5625 245.941406 170.5625 C 248.859375 170.246094 250.984375 167.644531 250.664062 164.726562 C 248.117188 140.414062 231.394531 119.5 208.464844 111.429688 C 207.5625 100.550781 198.539062 91.949219 187.390625 91.949219 Z M 187.496094 123.800781 C 181.660156 123.800781 176.882812 119.023438 176.882812 113.183594 C 176.882812 107.34375 181.660156 102.566406 187.496094 102.566406 C 193.335938 102.566406 198.113281 107.34375 198.113281 113.183594 C 198.113281 119.023438 193.335938 123.800781 187.496094 123.800781 Z M 187.496094 123.800781 " fill-opacity="1" fill-rule="nonzero"/><g clip-path="url(#ba5d3d1a74)"><path fill="#ffffff" d="M 65.460938 167.0625 C 65.460938 167.0625 65.726562 167.0625 65.886719 167.0625 C 68.648438 167.0625 70.929688 164.9375 71.195312 162.175781 C 72.46875 146.199219 76.925781 131.019531 84.410156 117.003906 C 86.800781 117.90625 89.347656 118.492188 92.054688 118.492188 C 103.785156 118.492188 113.289062 108.988281 113.289062 97.257812 C 113.289062 92.691406 111.800781 88.5 109.359375 85.050781 C 125.65625 70.292969 145.988281 60.367188 167.644531 56.597656 C 170.5625 64.773438 178.367188 70.664062 187.550781 70.664062 C 196.734375 70.664062 204.484375 64.773438 207.457031 56.597656 C 229.113281 60.3125 249.445312 70.238281 265.742188 85.050781 C 263.296875 88.5 261.8125 92.691406 261.8125 97.257812 C 261.8125 108.988281 271.3125 118.492188 283.046875 118.492188 C 285.753906 118.492188 288.300781 117.960938 290.6875 117.003906 C 298.171875 131.019531 302.632812 146.199219 303.90625 162.175781 C 304.117188 164.9375 306.453125 167.0625 309.214844 167.0625 C 309.375 167.0625 309.480469 167.0625 309.640625 167.0625 C 312.558594 166.847656 314.734375 164.246094 314.523438 161.328125 C 313.089844 143.386719 307.992188 126.398438 299.394531 110.742188 C 302.421875 107.078125 304.332031 102.40625 304.332031 97.257812 C 304.332031 85.527344 294.828125 76.023438 283.097656 76.023438 C 279.808594 76.023438 276.726562 76.820312 273.96875 78.148438 C 255.8125 61.320312 232.882812 50.066406 208.464844 45.980469 C 206.820312 35.894531 198.113281 28.199219 187.605469 28.199219 C 177.09375 28.199219 168.386719 35.894531 166.742188 45.980469 C 142.324219 50.015625 119.394531 61.269531 101.238281 78.148438 C 98.480469 76.820312 95.398438 76.023438 92.109375 76.023438 C 80.378906 76.023438 70.875 85.527344 70.875 97.257812 C 70.875 102.40625 72.785156 107.078125 75.8125 110.742188 C 67.214844 126.398438 62.117188 143.386719 60.683594 161.328125 C 60.472656 164.246094 62.648438 166.796875 65.566406 167.0625 Z M 293.609375 97.257812 C 293.609375 103.097656 288.832031 107.875 282.992188 107.875 C 277.152344 107.875 272.375 103.097656 272.375 97.257812 C 272.375 91.417969 277.152344 86.640625 282.992188 86.640625 C 288.832031 86.640625 293.609375 91.417969 293.609375 97.257812 Z M 187.496094 38.867188 C 193.335938 38.867188 198.113281 43.644531 198.113281 49.484375 C 198.113281 55.324219 193.335938 60.101562 187.496094 60.101562 C 181.660156 60.101562 176.882812 55.324219 176.882812 49.484375 C 176.882812 43.644531 181.660156 38.867188 187.496094 38.867188 Z M 92.003906 86.640625 C 97.839844 86.640625 102.621094 91.417969 102.621094 97.257812 C 102.621094 103.097656 97.839844 107.875 92.003906 107.875 C 86.164062 107.875 81.386719 103.097656 81.386719 97.257812 C 81.386719 91.417969 86.164062 86.640625 92.003906 86.640625 Z M 92.003906 86.640625 " fill-opacity="1" fill-rule="nonzero"/></g><path fill="#ffffff" d="M 67 204.960938 C 64.929688 207.03125 64.929688 210.375 67 212.445312 L 146.890625 292.386719 C 147.953125 293.449219 149.277344 293.925781 150.660156 293.925781 C 152.039062 293.925781 153.367188 293.394531 154.425781 292.386719 C 156.496094 290.316406 156.496094 286.972656 154.425781 284.902344 L 74.539062 204.960938 C 72.46875 202.890625 69.125 202.890625 67.054688 204.960938 Z M 67 204.960938 " fill-opacity="1" fill-rule="nonzero"/></svg>